<?xml version="1.0" standalone="no"?>
<svg xmlns="http://www.w3.org/2000/svg" version="1.1">
	<defs>
		<path id="star" d="M 69,107 C 62.262788,108.89248 53.757524,90.071163 47.194636,87.642174 40.631748,85.213184 21.92246,93.962125 18.040696,88.139463 14.158932,82.316801 29.430794,68.411708 29.712856,61.419432 29.994918,54.427155 15.892693,39.337137 20.230843,33.846058 c 4.33815,-5.491078 22.281944,4.736416 29.019156,2.84394 6.737212,-1.892475 16.730845,-19.96756 23.293733,-17.538571 6.562888,2.428989 2.380901,22.655021 6.262665,28.477683 3.881764,5.822663 24.160393,9.741664 23.878333,16.73394 -0.28206,6.992276 -20.810468,9.265158 -25.148618,14.756236 C 73.197962,84.610365 75.737212,105.10753 69,107 z"/>
	</defs>
</svg>
